<svg width="247" height="337" viewBox="0 0 247 337" fill="none" xmlns="http://www.w3.org/2000/svg">
<path d="M2.59452e-05 331.889L10.1088 309.209H15.2928L25.434 331.889H19.926L11.6316 311.865H13.7052L5.37843 331.889H2.59452e-05ZM5.05443 327.029L6.44763 323.043H18.1116L19.5372 327.029H5.05443ZM50.3247 332.277C48.5751 332.277 46.9443 331.997 45.4323 331.435C43.9419 330.852 42.6459 330.031 41.5443 328.973C40.4427 327.914 39.5787 326.672 38.9523 325.247C38.3475 323.821 38.0451 322.255 38.0451 320.549C38.0451 318.842 38.3475 317.276 38.9523 315.851C39.5787 314.425 40.4427 313.183 41.5443 312.125C42.6675 311.066 43.9743 310.256 45.4647 309.695C46.9551 309.111 48.5859 308.82 50.3571 308.82C52.3227 308.82 54.0939 309.165 55.6707 309.857C57.2691 310.526 58.6083 311.52 59.6883 312.837L56.3187 315.948C55.5411 315.062 54.6771 314.403 53.7267 313.971C52.7763 313.518 51.7395 313.291 50.6163 313.291C49.5579 313.291 48.5859 313.464 47.7003 313.809C46.8147 314.155 46.0479 314.652 45.3999 315.3C44.7519 315.948 44.2443 316.715 43.8771 317.6C43.5315 318.486 43.3587 319.469 43.3587 320.549C43.3587 321.629 43.5315 322.611 43.8771 323.497C44.2443 324.383 44.7519 325.149 45.3999 325.797C46.0479 326.445 46.8147 326.942 47.7003 327.288C48.5859 327.633 49.5579 327.806 50.6163 327.806C51.7395 327.806 52.7763 327.59 53.7267 327.158C54.6771 326.705 55.5411 326.024 56.3187 325.117L59.6883 328.227C58.6083 329.545 57.2691 330.549 55.6707 331.241C54.0939 331.932 52.3119 332.277 50.3247 332.277ZM71.8407 331.889L81.9495 309.209H87.1335L97.2747 331.889H91.7667L83.4723 311.865H85.5459L77.2191 331.889H71.8407ZM76.8951 327.029L78.2883 323.043H89.9523L91.3779 327.029H76.8951ZM111.628 331.889V309.209H121.931C124.393 309.209 126.564 309.684 128.443 310.634C130.323 311.563 131.791 312.87 132.85 314.555C133.908 316.239 134.437 318.237 134.437 320.549C134.437 322.838 133.908 324.836 132.85 326.543C131.791 328.227 130.323 329.545 128.443 330.495C126.564 331.424 124.393 331.889 121.931 331.889H111.628ZM116.877 327.579H121.672C123.184 327.579 124.491 327.299 125.592 326.737C126.715 326.154 127.579 325.333 128.184 324.275C128.811 323.216 129.124 321.974 129.124 320.549C129.124 319.101 128.811 317.859 128.184 316.823C127.579 315.764 126.715 314.954 125.592 314.393C124.491 313.809 123.184 313.518 121.672 313.518H116.877V327.579ZM155.223 318.345H166.142V322.428H155.223V318.345ZM155.612 327.677H167.956V331.889H150.396V309.209H167.535V313.421H155.612V327.677ZM184.133 331.889V309.209H188.474L198.13 325.214H195.829L205.322 309.209H209.632L209.696 331.889H204.772L204.739 316.758H205.646L198.065 329.491H195.7L187.956 316.758H189.058V331.889H184.133ZM232.715 331.889V322.622L233.914 325.797L223.935 309.209H229.507L237.154 321.942H233.946L241.625 309.209H246.777L236.797 325.797L237.964 322.622V331.889H232.715Z" fill="#2F2F2F"/>
<path fill-rule="evenodd" clip-rule="evenodd" d="M78.4855 278.652C75.3423 278.652 72.4353 278.103 69.7648 277.004C67.0944 275.905 64.7943 274.41 62.8649 272.519C60.9355 270.628 59.4278 268.411 58.3415 265.868C57.2554 263.325 56.7125 260.61 56.7125 257.722C56.7125 254.681 57.2554 251.825 58.3415 249.155C59.4278 246.484 60.9355 244.159 62.8649 242.178C64.7943 240.198 67.0944 238.633 69.7648 237.483C72.4353 236.333 75.3423 235.758 78.4855 235.758C81.6289 235.758 84.5231 236.281 87.1679 237.329C89.813 238.377 92.1066 239.814 94.0488 241.642C95.991 243.469 97.5052 245.616 98.5913 248.082C99.6773 250.548 100.22 253.186 100.22 255.997C100.22 259.115 99.6773 262.048 98.5913 264.795C97.5052 267.542 95.991 269.944 94.0488 272.001C92.1066 274.059 89.813 275.681 87.1679 276.87C84.5231 278.058 81.6289 278.652 78.4855 278.652ZM243.936 277.77H235.733V272.135C234.763 272.877 233.811 273.631 232.879 274.397C231.945 275.164 230.935 275.867 229.85 276.505C228.764 277.144 227.562 277.662 226.246 278.058C224.93 278.454 223.403 278.652 221.665 278.652C220.055 278.652 218.599 278.39 217.296 277.866C215.992 277.343 214.881 276.621 213.96 275.701C213.041 274.781 212.337 273.694 211.853 272.442C211.367 271.19 211.124 269.836 211.124 268.379C211.124 266.616 211.475 265.025 212.178 263.607C212.88 262.188 213.839 260.917 215.054 259.792C216.267 258.668 217.685 257.671 219.308 256.802C220.931 255.934 222.65 255.154 224.463 254.464C226.279 253.774 228.15 253.161 230.08 252.624C232.009 252.087 233.893 251.589 235.733 251.129V248.561C235.733 246.695 235.549 245.117 235.178 243.827C234.807 242.536 234.277 241.495 233.588 240.702C232.897 239.91 232.06 239.342 231.076 238.997C230.092 238.652 228.987 238.479 227.761 238.479C226.381 238.479 225.256 238.658 224.386 239.016C223.518 239.374 222.835 239.846 222.336 240.434C221.837 241.022 221.499 241.693 221.32 242.447C221.141 243.201 221.053 243.961 221.053 244.728C221.053 245.443 220.995 246.133 220.88 246.797C220.764 247.462 220.554 248.043 220.247 248.542C219.94 249.04 219.525 249.442 219.001 249.749C218.477 250.056 217.806 250.209 216.989 250.209C216.35 250.209 215.769 250.088 215.244 249.845C214.72 249.602 214.267 249.264 213.883 248.829C213.501 248.395 213.207 247.884 213.002 247.296C212.798 246.708 212.695 246.069 212.695 245.379C212.695 244.025 213.143 242.76 214.038 241.584C214.932 240.409 216.132 239.393 217.64 238.537C219.149 237.681 220.912 237.003 222.93 236.505C224.949 236.007 227.07 235.758 229.294 235.758C232.002 235.758 234.29 236.02 236.155 236.543C238.021 237.067 239.529 237.802 240.678 238.748C241.829 239.693 242.66 240.843 243.17 242.198C243.682 243.552 243.936 245.047 243.936 246.682V277.77ZM155.442 275.816C156.566 275.816 157.601 275.643 158.547 275.298C159.492 274.953 160.304 274.499 160.981 273.937C161.658 273.375 162.189 272.723 162.572 271.982C162.955 271.241 163.147 270.487 163.147 269.721C163.147 268.468 162.834 267.376 162.208 266.443C161.582 265.51 160.751 264.667 159.716 263.913C158.681 263.159 157.499 262.476 156.17 261.862C154.841 261.249 153.493 260.616 152.126 259.965C150.759 259.313 149.411 258.61 148.082 257.857C146.753 257.103 145.571 256.234 144.536 255.25C143.501 254.266 142.671 253.129 142.045 251.838C141.418 250.548 141.105 249.021 141.105 247.258C141.105 245.596 141.457 244.063 142.159 242.657C142.862 241.252 143.833 240.038 145.073 239.016C146.312 237.994 147.794 237.195 149.519 236.62C151.244 236.045 153.129 235.758 155.174 235.758C156.528 235.758 157.806 235.853 159.007 236.045C160.208 236.237 161.377 236.607 162.514 237.157C163.651 237.706 164.789 238.479 165.927 239.476C167.063 240.472 168.244 241.776 169.472 243.386L166.481 246.069C164.922 243.514 163.179 241.61 161.249 240.357C159.32 239.105 157.256 238.479 155.058 238.479C153.909 238.479 152.848 238.626 151.877 238.92C150.906 239.214 150.075 239.61 149.385 240.108C148.695 240.607 148.159 241.188 147.775 241.853C147.392 242.517 147.2 243.22 147.2 243.961C147.2 245.187 147.545 246.261 148.235 247.181C148.925 248.101 149.832 248.931 150.957 249.672C152.081 250.414 153.359 251.097 154.79 251.723C156.221 252.349 157.691 252.988 159.198 253.64C160.706 254.292 162.176 254.988 163.607 255.729C165.037 256.47 166.316 257.333 167.44 258.316C168.564 259.3 169.472 260.438 170.161 261.728C170.852 263.019 171.197 264.52 171.197 266.232C171.197 267.97 170.87 269.599 170.219 271.12C169.567 272.64 168.591 273.956 167.287 275.068C165.984 276.18 164.341 277.055 162.361 277.694C160.38 278.333 158.074 278.652 155.442 278.652C154.241 278.652 153.008 278.556 151.743 278.365C150.478 278.173 149.2 277.802 147.909 277.253C146.619 276.704 145.328 275.93 144.038 274.934C142.747 273.937 141.489 272.634 140.262 271.024L143.597 267.996C144.594 269.401 145.552 270.596 146.472 271.58C147.392 272.564 148.318 273.369 149.251 273.995C150.184 274.621 151.155 275.081 152.164 275.375C153.174 275.669 154.266 275.816 155.442 275.816ZM124.474 277.771H116.309V217.856L122.136 215.518H124.474V277.771ZM195.802 277.77H187.676V238.096L193.425 235.758H195.802V277.77ZM25.208 277.771H0.291626V224.373H21.7965C24.6331 224.373 27.2397 224.692 29.6164 225.331C31.993 225.97 34.0311 226.865 35.7304 228.015C37.4299 229.165 38.7525 230.545 39.6979 232.155C40.6435 233.765 41.1163 235.541 41.1163 237.483C41.1163 238.94 40.9629 240.243 40.6563 241.393C40.3497 242.543 39.8258 243.61 39.0847 244.594C38.3434 245.578 37.3468 246.51 36.0946 247.392C34.8424 248.274 33.2708 249.162 31.3797 250.056V250.21C33.2708 250.516 34.9893 251.034 36.5355 251.762C38.0817 252.49 39.3977 253.417 40.4838 254.541C41.5699 255.666 42.4068 256.962 42.9945 258.432C43.5823 259.901 43.8763 261.53 43.8763 263.319C43.8763 265.338 43.4354 267.229 42.5538 268.993C41.6721 270.756 40.4199 272.289 38.7971 273.593C37.1743 274.896 35.2131 275.918 32.913 276.659C30.613 277.4 28.0448 277.771 25.208 277.771ZM80.019 275.625C81.629 275.625 83.1049 275.21 84.4465 274.379C85.7882 273.549 86.9509 272.437 87.9348 271.044C88.9187 269.652 89.679 268.022 90.2156 266.157C90.7523 264.291 91.0207 262.324 91.0207 260.254C91.0207 257.264 90.7651 254.472 90.254 251.878C89.7429 249.284 88.9123 247.016 87.7622 245.074C86.6123 243.132 85.1174 241.605 83.2773 240.493C81.4373 239.381 79.1757 238.826 76.4924 238.826C75.1123 238.826 73.7835 239.222 72.5057 240.014C71.2279 240.806 70.0972 241.892 69.1134 243.272C68.1294 244.652 67.3437 246.262 66.7559 248.102C66.1681 249.942 65.8741 251.897 65.8741 253.967C65.8741 256.957 66.1936 259.768 66.8325 262.4C67.4713 265.033 68.3913 267.326 69.5925 269.281C70.7936 271.236 72.2757 272.782 74.0391 273.919C75.8024 275.057 77.7958 275.625 80.019 275.625ZM18.6902 251.705H9.26031V273.861H18.9584C21.5652 273.861 23.8268 273.612 25.7434 273.114C27.6601 272.616 29.2444 271.919 30.4968 271.025C31.749 270.13 32.6754 269.051 33.2759 267.786C33.8764 266.521 34.1767 265.134 34.1767 263.626C34.1767 261.94 33.9084 260.368 33.3716 258.912C32.8351 257.455 31.9533 256.196 30.7268 255.136C29.5 254.075 27.9028 253.238 25.9352 252.625C23.9673 252.012 21.5524 251.705 18.6902 251.705ZM235.733 253.775C234.558 254.158 233.339 254.593 232.073 255.078C230.808 255.564 229.568 256.107 228.355 256.707C227.141 257.308 225.985 257.96 224.886 258.662C223.787 259.365 222.822 260.113 221.992 260.905C221.161 261.697 220.503 262.54 220.017 263.435C219.531 264.329 219.289 265.262 219.289 266.233C219.289 267.23 219.474 268.182 219.845 269.089C220.216 269.996 220.707 270.788 221.321 271.466C221.934 272.143 222.643 272.68 223.448 273.076C224.254 273.472 225.091 273.67 225.959 273.67C226.88 273.67 227.755 273.549 228.585 273.306C229.416 273.063 230.22 272.737 231 272.328C231.779 271.919 232.559 271.44 233.339 270.891C234.118 270.341 234.916 269.76 235.733 269.147V253.775ZM16.6586 227.938H9.26031V248.408H20.6835C22.4724 248.408 24.0696 248.152 25.4751 247.641C26.8806 247.13 28.0625 246.421 29.0209 245.514C29.9793 244.607 30.7075 243.54 31.2059 242.313C31.7042 241.086 31.9533 239.745 31.9533 238.288C31.9533 236.729 31.6595 235.311 31.0718 234.033C30.484 232.755 29.564 231.663 28.3117 230.755C27.0595 229.848 25.4751 229.152 23.5585 228.666C21.6419 228.181 19.3418 227.938 16.6586 227.938ZM191.657 215.518C192.297 215.518 192.903 215.627 193.479 215.844C194.054 216.061 194.553 216.355 194.974 216.725C195.395 217.096 195.734 217.53 195.989 218.029C196.245 218.527 196.373 219.057 196.373 219.62C196.373 220.182 196.245 220.712 195.989 221.21C195.734 221.709 195.395 222.143 194.974 222.514C194.553 222.884 194.054 223.178 193.479 223.395C192.903 223.613 192.297 223.721 191.657 223.721C191.019 223.721 190.418 223.613 189.857 223.395C189.294 223.178 188.801 222.884 188.381 222.514C187.959 222.143 187.62 221.709 187.365 221.21C187.109 220.712 186.981 220.182 186.981 219.62C186.981 219.057 187.109 218.527 187.365 218.029C187.62 217.53 187.959 217.096 188.381 216.725C188.801 216.355 189.294 216.061 189.857 215.844C190.418 215.627 191.019 215.518 191.657 215.518ZM122.72 0.00164135C165.226 0.272465 205.477 32.6941 212.464 77.4604C217.101 107.174 206.411 139.889 181.088 161.179C159.482 179.344 128.691 187.147 100.404 180.146C75.848 174.069 53.5331 158.047 40.7657 132.955C31.8009 115.336 28.4145 95.2543 32.2987 74.6405C38.0233 44.2591 58.6863 15.5272 94.9709 4.11487C103.734 1.35904 112.893 0.0295444 122.13 0C122.327 0 122.523 0.00164135 122.72 0.00164135ZM39.3954 101.995C40.4948 110.844 42.9818 119.517 46.8639 127.568C62.6666 160.344 101.368 180.654 138.458 173.299C164.062 168.221 186.79 150.336 197.856 126.652C208.7 103.44 208.021 75.1462 196.053 52.4758C181.843 25.5576 152.141 7.76535 121.602 7.86055C91.1076 8.15271 61.6392 26.3012 47.7652 53.3736C43.3839 61.9218 40.594 71.2348 39.4043 80.7547C61.4995 65.7954 83.7816 51.1135 105.96 36.2773C112.941 31.6536 121.189 29.1489 129.56 29.1111H129.794C146.59 29.2704 162.006 43.8981 162.654 60.9321C163.129 73.3932 155.659 85.3932 144.693 91.371V91.4481C154.766 96.9598 162.208 107.543 162.654 119.269C163.325 136.887 148.114 153.584 129.593 153.642C129.593 153.642 129.048 153.639 128.782 153.635C120.785 153.45 112.972 151.032 106.281 146.689C83.9244 131.883 61.5913 117.04 39.3954 101.995ZM129.593 95.3013H126.067V145.587C127.232 145.712 128.404 145.776 129.578 145.783L129.58 145.781L129.593 145.783C129.806 145.781 130.02 145.778 130.233 145.775C143.563 145.392 155.396 132.997 154.793 119.405C154.231 106.738 143.136 95.4326 129.744 95.3062V95.3046C129.694 95.3046 129.643 95.3062 129.593 95.3062V95.3013ZM118.219 39.0325C115.591 39.9172 112.951 41.1072 110.592 42.6386C86.6913 58.4678 62.9367 74.5153 39.1095 90.4545C38.9467 90.5628 37.8965 91.3424 37.8965 91.3424C37.8965 91.3424 38.9201 92.1631 39.0548 92.2632C62.2593 109.135 86.673 124.276 110.592 140.117C112.975 141.663 115.542 142.91 118.219 143.838V95.303H102.589L99.3765 89.7963V87.4524H118.219V39.0325ZM126.067 37.2127V87.4513H129.568V87.4464C129.79 87.4464 130.011 87.4431 130.233 87.4381C143.563 87.0557 155.396 74.6602 154.793 61.0698C154.231 48.4035 143.136 37.0978 129.744 36.9715H129.58V36.9698L126.067 37.2127Z" fill="#2F2F2F"/>
</svg>
