<svg width="400" height="458" viewBox="0 0 400 458" fill="none" xmlns="http://www.w3.org/2000/svg">
<path fill-rule="evenodd" clip-rule="evenodd" d="M128.37 457.475C123.21 457.475 118.437 456.573 114.053 454.769C109.669 452.965 105.893 450.51 102.725 447.406C99.5576 444.301 97.0823 440.662 95.299 436.487C93.5159 432.312 92.6245 427.855 92.6245 423.114C92.6245 418.121 93.5159 413.432 95.299 409.048C97.0823 404.664 99.5576 400.846 102.725 397.595C105.893 394.343 109.669 391.773 114.053 389.885C118.437 387.997 123.21 387.053 128.37 387.053C133.531 387.053 138.282 387.913 142.624 389.633C146.967 391.354 150.732 393.714 153.921 396.713C157.11 399.713 159.595 403.237 161.379 407.286C163.162 411.335 164.053 415.667 164.053 420.282C164.053 425.4 163.162 430.215 161.379 434.725C159.595 439.235 157.11 443.179 153.921 446.556C150.732 449.934 146.967 452.598 142.624 454.549C138.282 456.5 133.531 457.475 128.37 457.475ZM400 456.027H386.532V446.776C384.94 447.993 383.377 449.231 381.846 450.49C380.313 451.748 378.656 452.902 376.875 453.951C375.091 455 373.118 455.849 370.957 456.5C368.796 457.15 366.29 457.475 363.436 457.475C360.793 457.475 358.403 457.045 356.263 456.185C354.124 455.325 352.299 454.14 350.788 452.629C349.279 451.119 348.123 449.336 347.328 447.28C346.53 445.224 346.131 443.001 346.131 440.609C346.131 437.714 346.708 435.102 347.861 432.774C349.014 430.445 350.588 428.358 352.582 426.512C354.574 424.666 356.902 423.03 359.567 421.603C362.232 420.177 365.053 418.897 368.031 417.764C371.011 416.632 374.083 415.625 377.252 414.744C380.418 413.863 383.512 413.044 386.532 412.289V408.073C386.532 405.01 386.231 402.419 385.622 400.301C385.013 398.182 384.142 396.472 383.01 395.171C381.876 393.871 380.502 392.937 378.888 392.371C377.271 391.805 375.457 391.522 373.444 391.522C371.178 391.522 369.332 391.815 367.904 392.402C366.479 392.99 365.358 393.766 364.539 394.731C363.719 395.696 363.164 396.797 362.871 398.035C362.577 399.273 362.431 400.521 362.431 401.78C362.431 402.954 362.337 404.087 362.148 405.178C361.957 406.269 361.612 407.223 361.108 408.041C360.604 408.859 359.923 409.52 359.063 410.024C358.203 410.527 357.101 410.779 355.759 410.779C354.711 410.779 353.757 410.58 352.895 410.181C352.035 409.783 351.292 409.227 350.661 408.513C350.033 407.8 349.551 406.961 349.214 405.996C348.88 405.031 348.71 403.982 348.71 402.849C348.71 400.626 349.446 398.549 350.914 396.619C352.383 394.689 354.353 393.021 356.829 391.616C359.305 390.21 362.2 389.098 365.514 388.28C368.828 387.462 372.31 387.053 375.961 387.053C380.407 387.053 384.164 387.483 387.225 388.343C390.289 389.203 392.765 390.41 394.651 391.962C396.54 393.514 397.904 395.402 398.742 397.626C399.583 399.85 400 402.304 400 404.989V456.027ZM254.714 452.818C256.56 452.818 258.259 452.535 259.811 451.968C261.364 451.402 262.696 450.657 263.808 449.734C264.919 448.811 265.79 447.741 266.419 446.525C267.048 445.308 267.363 444.07 267.363 442.812C267.363 440.756 266.849 438.962 265.821 437.431C264.794 435.9 263.43 434.515 261.731 433.277C260.032 432.04 258.091 430.917 255.91 429.91C253.728 428.904 251.515 427.865 249.27 426.795C247.025 425.725 244.812 424.572 242.631 423.334C240.449 422.096 238.509 420.67 236.809 419.055C235.11 417.439 233.747 415.572 232.719 413.453C231.691 411.335 231.177 408.828 231.177 405.933C231.177 403.206 231.754 400.689 232.908 398.381C234.061 396.074 235.656 394.081 237.691 392.402C239.725 390.724 242.159 389.413 244.991 388.469C247.823 387.525 250.917 387.053 254.273 387.053C256.497 387.053 258.595 387.211 260.566 387.525C262.538 387.84 264.458 388.448 266.325 389.35C268.192 390.252 270.06 391.522 271.927 393.158C273.792 394.794 275.732 396.934 277.748 399.577L272.838 403.982C270.278 399.787 267.416 396.661 264.248 394.605C261.081 392.549 257.693 391.522 254.084 391.522C252.197 391.522 250.455 391.763 248.861 392.245C247.267 392.728 245.903 393.378 244.77 394.196C243.638 395.014 242.757 395.969 242.127 397.06C241.498 398.15 241.183 399.304 241.183 400.521C241.183 402.535 241.75 404.297 242.882 405.807C244.015 407.318 245.505 408.681 247.351 409.898C249.197 411.115 251.294 412.237 253.644 413.265C255.993 414.293 258.406 415.342 260.881 416.411C263.357 417.481 265.769 418.625 268.119 419.841C270.467 421.058 272.566 422.474 274.412 424.089C276.258 425.705 277.748 427.571 278.879 429.69C280.014 431.809 280.58 434.274 280.58 437.085C280.58 439.938 280.044 442.612 278.974 445.109C277.904 447.605 276.301 449.766 274.161 451.591C272.022 453.416 269.325 454.853 266.073 455.902C262.822 456.951 259.035 457.475 254.714 457.475C252.742 457.475 250.717 457.318 248.641 457.003C246.564 456.688 244.466 456.08 242.348 455.178C240.229 454.276 238.11 453.007 235.991 451.37C233.872 449.734 231.806 447.594 229.792 444.952L235.268 439.98C236.904 442.287 238.477 444.249 239.988 445.864C241.498 447.479 243.019 448.801 244.55 449.829C246.082 450.857 247.676 451.612 249.333 452.094C250.99 452.577 252.784 452.818 254.714 452.818ZM203.877 456.028H190.473V357.664L200.039 353.825H203.877V456.028ZM320.971 456.027H307.629V390.892L317.069 387.053H320.971V456.027ZM40.9062 456.027H0V368.362H35.3053C39.9623 368.362 44.2417 368.886 48.1436 369.935C52.0455 370.984 55.3914 372.453 58.1812 374.34C60.9713 376.228 63.1427 378.494 64.6948 381.137C66.2472 383.78 67.0235 386.696 67.0235 389.885C67.0235 392.276 66.7716 394.416 66.2682 396.304C65.7649 398.192 64.9047 399.944 63.6881 401.559C62.4711 403.174 60.8349 404.705 58.7792 406.153C56.7234 407.6 54.1433 409.058 51.0385 410.527V410.779C54.1433 411.282 56.9646 412.132 59.503 413.327C62.0414 414.523 64.2019 416.044 65.985 417.89C67.7681 419.736 69.1421 421.865 70.107 424.278C71.072 426.69 71.5546 429.365 71.5546 432.302C71.5546 435.616 70.8308 438.721 69.3835 441.616C67.936 444.511 65.8802 447.028 63.216 449.168C60.5517 451.307 57.3319 452.985 53.5558 454.202C49.7798 455.419 45.5634 456.027 40.9062 456.027ZM130.887 452.504C133.531 452.504 135.954 451.822 138.156 450.458C140.359 449.095 142.268 447.27 143.883 444.983C145.498 442.697 146.747 440.022 147.627 436.959C148.509 433.896 148.949 430.666 148.949 427.267C148.949 422.359 148.53 417.775 147.691 413.517C146.851 409.258 145.488 405.535 143.6 402.346C141.712 399.158 139.258 396.651 136.237 394.826C133.216 393.001 129.503 392.088 125.098 392.088C122.832 392.088 120.65 392.738 118.552 394.039C116.455 395.34 114.598 397.123 112.983 399.388C111.368 401.654 110.078 404.297 109.113 407.318C108.148 410.339 107.665 413.548 107.665 416.947C107.665 421.855 108.19 426.47 109.239 430.792C110.287 435.113 111.798 438.879 113.77 442.088C115.742 445.298 118.175 447.836 121.07 449.703C123.965 451.57 127.237 452.504 130.887 452.504ZM30.208 413.233H14.7266V449.608H30.6483C34.928 449.608 38.641 449.199 41.7876 448.381C44.9341 447.563 47.5353 446.42 49.5913 444.951C51.6471 443.483 53.168 441.71 54.1539 439.634C55.1397 437.557 55.6328 435.281 55.6328 432.805C55.6328 430.036 55.1922 427.456 54.311 425.064C53.4302 422.673 51.9826 420.607 49.9688 418.866C47.9548 417.125 45.3327 415.751 42.1023 414.744C38.8716 413.737 34.907 413.233 30.208 413.233ZM386.532 416.632C384.603 417.261 382.601 417.974 380.523 418.772C378.446 419.569 376.411 420.46 374.42 421.446C372.426 422.432 370.529 423.502 368.723 424.656C366.921 425.809 365.336 427.037 363.973 428.337C362.609 429.638 361.529 431.022 360.731 432.491C359.933 433.959 359.535 435.491 359.535 437.085C359.535 438.721 359.839 440.284 360.448 441.774C361.057 443.263 361.863 444.563 362.871 445.675C363.878 446.787 365.042 447.668 366.363 448.318C367.686 448.969 369.06 449.294 370.486 449.294C371.997 449.294 373.434 449.095 374.797 448.696C376.161 448.297 377.481 447.762 378.761 447.091C380.041 446.42 381.321 445.633 382.601 444.731C383.881 443.829 385.19 442.875 386.532 441.868V416.632ZM26.8725 374.215H14.7266V407.821H33.4804C36.4173 407.821 39.0395 407.401 41.347 406.562C43.6544 405.723 45.5949 404.559 47.1683 403.069C48.7417 401.58 49.9373 399.828 50.7554 397.814C51.5735 395.801 51.9826 393.598 51.9826 391.206C51.9826 388.647 51.5002 386.319 50.5353 384.221C49.5703 382.123 48.0599 380.33 46.0039 378.84C43.9481 377.351 41.347 376.207 38.2004 375.41C35.0538 374.613 31.2778 374.215 26.8725 374.215ZM314.172 353.825C315.223 353.825 316.217 354.003 317.163 354.36C318.106 354.717 318.926 355.199 319.618 355.807C320.308 356.416 320.866 357.129 321.283 357.947C321.704 358.765 321.914 359.636 321.914 360.559C321.914 361.482 321.704 362.352 321.283 363.171C320.866 363.989 320.308 364.702 319.618 365.31C318.926 365.919 318.106 366.401 317.163 366.758C316.217 367.114 315.223 367.293 314.172 367.293C313.124 367.293 312.138 367.114 311.216 366.758C310.292 366.401 309.483 365.919 308.794 365.31C308.101 364.702 307.543 363.989 307.126 363.171C306.705 362.352 306.495 361.482 306.495 360.559C306.495 359.636 306.705 358.765 307.126 357.947C307.543 357.129 308.101 356.416 308.794 355.807C309.483 355.199 310.292 354.717 311.216 354.36C312.138 354.003 313.124 353.825 314.172 353.825ZM200.996 0.00269467C270.779 0.447316 336.861 53.6752 348.332 127.17C355.945 175.951 338.394 229.662 296.821 264.615C261.35 294.435 210.799 307.246 164.36 295.753C124.044 285.777 87.4093 259.471 66.4485 218.277C51.7307 189.352 46.1711 156.383 52.548 122.54C61.9462 72.6619 95.8695 25.4916 155.439 6.75555C169.826 2.23119 184.863 0.0485041 200.027 0C200.35 0 200.673 0.00269467 200.996 0.00269467ZM64.1992 167.45C66.0041 181.977 70.0871 196.216 76.4605 209.433C102.404 263.243 165.942 296.587 226.834 284.511C268.869 276.175 306.182 246.812 324.349 207.929C342.153 169.821 341.038 123.371 321.391 86.1517C298.06 41.9591 249.298 12.7488 199.161 12.9051C149.097 13.3847 100.718 43.1797 77.9402 87.6257C70.7473 101.66 66.1669 116.949 64.2138 132.578C100.488 108.019 137.07 83.9151 173.481 59.558C184.941 51.9671 198.483 47.855 212.226 47.793H212.611C240.184 48.0544 265.494 72.0693 266.558 100.035C267.337 120.493 255.074 140.193 237.071 150.007V150.134C253.607 159.183 265.825 176.558 266.558 195.809C267.659 224.733 242.687 252.145 212.281 252.241C212.281 252.241 211.386 252.235 210.948 252.229C197.819 251.925 184.993 247.954 174.007 240.826C137.304 216.517 100.639 192.149 64.1992 167.45ZM212.281 156.461H206.493V239.017C208.405 239.222 210.329 239.327 212.256 239.338L212.26 239.335L212.281 239.338C212.631 239.335 212.982 239.33 213.332 239.325C235.216 238.697 254.644 218.347 253.654 196.032C252.731 175.237 234.515 156.676 212.529 156.469V156.466C212.447 156.466 212.364 156.469 212.281 156.469V156.461ZM193.604 64.0796C189.289 65.532 184.955 67.4857 181.082 69.9998C141.843 95.9872 102.844 122.333 63.7264 148.501C63.4591 148.679 61.735 149.959 61.735 149.959C61.735 149.959 63.4154 151.306 63.6367 151.471C101.732 179.169 141.813 204.027 181.082 230.034C184.995 232.572 189.209 234.62 193.604 236.143V156.461H167.944L162.669 147.42V143.572H193.604V64.0796ZM206.493 61.0938V143.572H212.24V143.564C212.604 143.564 212.968 143.559 213.332 143.551C235.216 142.923 254.644 122.573 253.654 100.261C252.731 79.4661 234.515 60.9052 212.529 60.6977H212.26V60.695L206.493 61.0938Z" fill="#2F2F2F"/>
</svg>
