<svg width="474" height="183" viewBox="0 0 474 183" fill="none" xmlns="http://www.w3.org/2000/svg">
<path fill-rule="evenodd" clip-rule="evenodd" d="M305.881 97.4368C302.732 97.4368 299.821 96.8866 297.146 95.7859C294.471 94.6852 292.167 93.1877 290.235 91.2937C288.302 89.3995 286.792 87.1791 285.704 84.6322C284.616 82.0853 284.073 79.3657 284.073 76.4732C284.073 73.4272 284.616 70.5669 285.704 67.8921C286.792 65.2173 288.302 62.8879 290.235 60.9043C292.167 58.9205 294.471 57.3528 297.146 56.201C299.821 55.049 302.732 54.4731 305.881 54.4731C309.029 54.4731 311.928 54.9979 314.577 56.0473C317.226 57.0968 319.524 58.5366 321.469 60.3667C323.414 62.197 324.931 64.347 326.019 66.8171C327.107 69.2872 327.65 71.9299 327.65 74.7456C327.65 77.8683 327.107 80.8055 326.019 83.557C324.931 86.3088 323.414 88.7148 321.469 90.7753C319.524 92.8359 317.226 94.4612 314.577 95.6514C311.928 96.8417 309.029 97.4368 305.881 97.4368ZM471.599 96.5536H463.382V90.9096C462.411 91.6521 461.457 92.4072 460.523 93.1751C459.588 93.9428 458.577 94.6468 457.49 95.2866C456.402 95.9266 455.198 96.445 453.88 96.8417C452.561 97.2384 451.032 97.4368 449.291 97.4368C447.679 97.4368 446.22 97.1744 444.915 96.6497C443.61 96.125 442.497 95.4019 441.575 94.4804C440.654 93.5589 439.949 92.4711 439.464 91.2169C438.977 89.9627 438.734 88.6061 438.734 87.147C438.734 85.3809 439.086 83.7875 439.789 82.367C440.493 80.9462 441.453 79.6728 442.669 78.5466C443.884 77.4203 445.305 76.4221 446.931 75.5518C448.557 74.6816 450.278 73.9009 452.094 73.2097C453.913 72.5186 455.787 71.9044 457.72 71.3668C459.652 70.8292 461.539 70.3301 463.382 69.8695V67.297C463.382 65.4284 463.198 63.8479 462.826 62.5552C462.455 61.2627 461.924 60.2196 461.233 59.426C460.541 58.6326 459.703 58.063 458.718 57.7176C457.732 57.372 456.625 57.1992 455.397 57.1992C454.015 57.1992 452.888 57.3784 452.017 57.7366C451.147 58.095 450.464 58.5685 449.964 59.1574C449.464 59.7461 449.125 60.418 448.946 61.1731C448.767 61.9282 448.678 62.6897 448.678 63.4576C448.678 64.1742 448.621 64.8653 448.506 65.5308C448.389 66.1963 448.178 66.7786 447.871 67.2777C447.564 67.7768 447.148 68.1801 446.623 68.4872C446.099 68.7943 445.426 68.948 444.608 68.948C443.968 68.948 443.386 68.8264 442.86 68.5832C442.336 68.3401 441.882 68.0009 441.497 67.5658C441.114 67.1306 440.82 66.6186 440.614 66.0299C440.411 65.4412 440.307 64.8014 440.307 64.1102C440.307 62.7536 440.756 61.4866 441.652 60.3092C442.548 59.1317 443.75 58.1143 445.26 57.2568C446.771 56.3992 448.537 55.7209 450.559 55.2218C452.581 54.7227 454.705 54.4731 456.933 54.4731C459.645 54.4731 461.937 54.7355 463.805 55.2603C465.674 55.7849 467.185 56.5209 468.335 57.468C469.488 58.4149 470.32 59.5669 470.831 60.9235C471.344 62.2801 471.599 63.7775 471.599 65.4156V96.5536ZM382.963 94.5956C384.089 94.5956 385.126 94.4229 386.073 94.0773C387.02 93.7317 387.832 93.2773 388.511 92.7143C389.189 92.1512 389.72 91.4984 390.104 90.7561C390.488 90.0138 390.68 89.2587 390.68 88.4908C390.68 87.2366 390.366 86.1424 389.739 85.2081C389.112 84.2738 388.28 83.4291 387.244 82.6741C386.207 81.919 385.023 81.2342 383.692 80.6199C382.361 80.0057 381.011 79.3721 379.641 78.7194C378.272 78.0666 376.922 77.3628 375.591 76.6077C374.26 75.8526 373.076 74.9823 372.039 73.9969C371.003 73.0113 370.171 71.8724 369.544 70.5797C368.917 69.2872 368.603 67.7578 368.603 65.9916C368.603 64.3277 368.955 62.7919 369.659 61.3842C370.363 59.9764 371.335 58.7605 372.577 57.7366C373.818 56.7128 375.303 55.913 377.031 55.3371C378.758 54.7612 380.646 54.4731 382.694 54.4731C384.051 54.4731 385.33 54.5692 386.533 54.7612C387.736 54.953 388.907 55.3242 390.046 55.8745C391.185 56.4249 392.325 57.1992 393.464 58.1974C394.602 59.1957 395.786 60.5012 397.015 62.1136L394.02 64.8014C392.458 62.2417 390.712 60.3348 388.779 59.0804C386.847 57.8262 384.78 57.1992 382.579 57.1992C381.427 57.1992 380.365 57.3464 379.392 57.6406C378.419 57.9351 377.587 58.3318 376.896 58.8309C376.205 59.33 375.668 59.9125 375.284 60.578C374.9 61.2434 374.708 61.9472 374.708 62.6897C374.708 63.9182 375.053 64.9932 375.744 65.9147C376.436 66.8363 377.344 67.6682 378.47 68.4104C379.597 69.1527 380.876 69.8374 382.31 70.4646C383.743 71.0916 385.215 71.7316 386.725 72.3843C388.235 73.037 389.707 73.7345 391.141 74.4768C392.573 75.219 393.854 76.083 394.98 77.0684C396.106 78.0539 397.015 79.1929 397.706 80.4856C398.398 81.7782 398.743 83.282 398.743 84.9969C398.743 86.7375 398.416 88.3692 397.763 89.8922C397.111 91.4152 396.133 92.7335 394.827 93.847C393.522 94.9603 391.877 95.837 389.893 96.4769C387.909 97.1169 385.599 97.4368 382.963 97.4368C381.76 97.4368 380.524 97.3408 379.257 97.1488C377.99 96.9569 376.711 96.5857 375.418 96.0355C374.125 95.485 372.833 94.7107 371.54 93.7125C370.248 92.7143 368.987 91.4088 367.758 89.7963L371.099 86.763C372.097 88.1709 373.057 89.3676 373.978 90.353C374.9 91.3384 375.828 92.1448 376.762 92.7718C377.696 93.399 378.669 93.8596 379.68 94.1541C380.691 94.4483 381.785 94.5956 382.963 94.5956ZM351.946 96.5541H343.768V36.5432L349.604 34.2012H351.946V96.5541ZM423.383 96.5536H415.244V56.8152L421.003 54.4731H423.383V96.5536ZM252.519 96.5539H227.562V43.0702H249.102C251.943 43.0702 254.554 43.3901 256.934 44.0301C259.315 44.6699 261.356 45.5659 263.058 46.7177C264.76 47.8695 266.085 49.2517 267.032 50.8643C267.979 52.4769 268.453 54.2559 268.453 56.2012C268.453 57.6601 268.299 58.9656 267.992 60.1174C267.685 61.2693 267.16 62.3379 266.418 63.3233C265.675 64.3088 264.677 65.243 263.423 66.1262C262.169 67.0092 260.595 67.8988 258.7 68.7946V68.9483C260.595 69.2554 262.316 69.7737 263.865 70.5032C265.413 71.2326 266.731 72.1605 267.819 73.2868C268.907 74.4131 269.745 75.712 270.334 77.1839C270.923 78.6557 271.217 80.2874 271.217 82.0792C271.217 84.1013 270.776 85.9955 269.893 87.7617C269.009 89.5278 267.755 91.0636 266.13 92.3689C264.504 93.6744 262.54 94.6982 260.236 95.4406C257.933 96.1828 255.36 96.5539 252.519 96.5539ZM307.416 94.4038C309.029 94.4038 310.507 93.9878 311.851 93.156C313.194 92.3241 314.359 91.2106 315.344 89.8155C316.33 88.4206 317.092 86.7888 317.629 84.9202C318.167 83.0517 318.435 81.0808 318.435 79.0074C318.435 76.0127 318.179 73.2163 317.667 70.6183C317.155 68.0203 316.324 65.7485 315.172 63.8031C314.02 61.8579 312.523 60.3285 310.679 59.2151C308.837 58.1016 306.571 57.5449 303.884 57.5449C302.501 57.5449 301.17 57.9416 299.891 58.7352C298.611 59.5286 297.478 60.6164 296.493 61.9987C295.507 63.3808 294.72 64.9934 294.132 66.8364C293.543 68.6794 293.248 70.6375 293.248 72.7108C293.248 75.7055 293.568 78.5211 294.208 81.1576C294.848 83.7941 295.77 86.0912 296.973 88.0494C298.176 90.0076 299.66 91.5562 301.426 92.6952C303.193 93.8343 305.189 94.4038 307.416 94.4038ZM245.993 70.4455H236.548V92.6376H246.262C248.873 92.6376 251.138 92.3881 253.058 91.889C254.978 91.3898 256.565 90.6923 257.819 89.7965C259.073 88.9005 260.001 87.8191 260.603 86.5521C261.204 85.285 261.505 83.8964 261.505 82.3862C261.505 80.6968 261.236 79.1227 260.698 77.6637C260.161 76.2048 259.278 74.944 258.049 73.8818C256.821 72.8196 255.221 71.9813 253.25 71.367C251.279 70.7526 248.86 70.4455 245.993 70.4455ZM463.382 72.5188C462.205 72.9029 460.984 73.338 459.716 73.8243C458.449 74.3106 457.207 74.8546 455.992 75.456C454.776 76.0575 453.618 76.7104 452.517 77.4142C451.417 78.1181 450.451 78.8668 449.619 79.6603C448.787 80.4537 448.128 81.2984 447.641 82.1944C447.154 83.0902 446.911 84.0245 446.911 84.9971C446.911 85.9955 447.097 86.9488 447.468 87.8576C447.84 88.7663 448.331 89.5596 448.946 90.238C449.561 90.9163 450.271 91.4539 451.077 91.8506C451.884 92.2473 452.723 92.4457 453.592 92.4457C454.514 92.4457 455.391 92.3242 456.223 92.0809C457.054 91.8377 457.86 91.5114 458.641 91.1019C459.422 90.6924 460.203 90.2125 460.984 89.6621C461.764 89.1118 462.563 88.5295 463.382 87.9152V72.5188ZM243.958 46.6404H236.548V67.1431H247.99C249.782 67.1431 251.381 66.8871 252.789 66.3752C254.197 65.8632 255.381 65.1529 256.341 64.2442C257.301 63.3356 258.03 62.267 258.529 61.0383C259.028 59.8097 259.278 58.4659 259.278 57.0069C259.278 55.4454 258.984 54.0248 258.395 52.745C257.806 51.4653 256.885 50.3711 255.63 49.4623C254.376 48.5536 252.789 47.8561 250.869 47.3698C248.95 46.8835 246.646 46.6404 243.958 46.6404ZM419.237 34.2012C419.878 34.2012 420.485 34.31 421.062 34.5275C421.637 34.7452 422.137 35.0394 422.559 35.4107C422.98 35.7817 423.321 36.2169 423.575 36.716C423.832 37.2151 423.96 37.7463 423.96 38.3095C423.96 38.8726 423.832 39.4038 423.575 39.9029C423.321 40.402 422.98 40.8372 422.559 41.2082C422.137 41.5794 421.637 41.8737 421.062 42.0914C420.485 42.3089 419.878 42.4177 419.237 42.4177C418.597 42.4177 417.996 42.3089 417.433 42.0914C416.87 41.8737 416.376 41.5794 415.955 41.2082C415.533 40.8372 415.193 40.402 414.938 39.9029C414.681 39.4038 414.553 38.8726 414.553 38.3095C414.553 37.7463 414.681 37.2151 414.938 36.716C415.193 36.2169 415.533 35.7817 415.955 35.4107C416.376 35.0394 416.87 34.7452 417.433 34.5275C417.996 34.31 418.597 34.2012 419.237 34.2012ZM92.1594 0.00164399C134.734 0.272903 175.049 32.7467 182.048 77.585C186.692 107.346 175.985 140.114 150.621 161.439C128.981 179.632 98.1403 187.448 69.808 180.436C45.212 174.35 22.8613 158.301 10.0733 133.168C1.09413 115.522 -2.29776 95.4076 1.59275 74.7606C7.32651 44.3303 28.0228 15.5522 64.3657 4.12149C73.1428 1.36123 82.3168 0.0295919 91.5686 0C91.7655 0 91.9625 0.00164399 92.1594 0.00164399ZM8.70117 102.16C9.80232 111.022 12.2933 119.709 16.1817 127.773C32.0097 160.602 70.7736 180.945 107.923 173.578C133.568 168.492 156.333 150.578 167.416 126.856C178.278 103.606 177.598 75.2671 165.611 52.5602C151.378 25.5987 121.628 7.77783 91.0401 7.87318C60.4965 8.16581 30.9807 26.3435 17.0844 53.4595C12.6961 62.0214 9.90162 71.3494 8.71005 80.8846C30.8408 65.9012 53.1587 51.1957 75.3727 36.3357C82.3648 31.7045 90.6265 29.1958 99.0109 29.158H99.2455C116.068 29.3174 131.509 43.9687 132.158 61.0301C132.633 73.5113 125.152 85.5305 114.168 91.518V91.5952C124.257 97.1158 131.711 107.716 132.158 119.461C132.83 137.108 117.595 153.831 99.0442 153.889C99.0442 153.889 98.4984 153.886 98.2311 153.882C90.2214 153.697 82.3963 151.275 75.6941 146.925C53.3018 132.095 30.9327 117.228 8.70117 102.16ZM99.044 95.4558H95.5126V145.823C96.6796 145.948 97.8535 146.012 99.0291 146.018L99.0315 146.017L99.044 146.018C99.2578 146.017 99.4715 146.014 99.6852 146.01C113.037 145.627 124.889 133.212 124.285 119.598C123.722 106.911 112.609 95.5873 99.1956 95.4607V95.4591C99.1451 95.4591 99.0945 95.4607 99.044 95.4607V95.4558ZM87.6502 39.095C85.0175 39.9811 82.3733 41.173 80.0109 42.7069C56.0716 58.5616 32.2787 74.6349 8.41315 90.5997C8.25007 90.7082 7.19824 91.4891 7.19824 91.4891C7.19824 91.4891 8.22344 92.3111 8.35841 92.4114C31.6002 109.31 56.0531 124.476 80.0109 140.342C82.3977 141.891 84.9687 143.14 87.6502 144.069V95.4561H71.9951L68.7772 89.9405V87.5929H87.6502V39.095ZM95.5126 37.2729V87.5923H99.0192V87.5874C99.2413 87.5874 99.4633 87.5841 99.6852 87.5791C113.037 87.1961 124.889 74.7806 124.285 61.1684C123.722 48.4817 112.609 37.1578 99.1956 37.0312H99.0315V37.0296L95.5126 37.2729Z" fill="#2F2F2F"/>
<path d="M226.508 146.8L236.617 124.12H241.801L251.942 146.8H246.434L238.14 126.777H240.214L231.887 146.8H226.508ZM231.563 141.94L232.956 137.955H244.62L246.046 141.94H231.563ZM276.833 147.189C275.083 147.189 273.453 146.908 271.941 146.347C270.45 145.764 269.154 144.943 268.053 143.884C266.951 142.826 266.087 141.584 265.461 140.158C264.856 138.733 264.553 137.167 264.553 135.46C264.553 133.754 264.856 132.188 265.461 130.762C266.087 129.337 266.951 128.095 268.053 127.036C269.176 125.978 270.483 125.168 271.973 124.606C273.463 124.023 275.094 123.732 276.865 123.732C278.831 123.732 280.602 124.077 282.179 124.768C283.777 125.438 285.117 126.432 286.197 127.749L282.827 130.86C282.049 129.974 281.185 129.315 280.235 128.883C279.285 128.43 278.248 128.203 277.125 128.203C276.066 128.203 275.094 128.376 274.209 128.721C273.323 129.067 272.556 129.564 271.908 130.212C271.26 130.86 270.753 131.626 270.385 132.512C270.04 133.398 269.867 134.38 269.867 135.46C269.867 136.54 270.04 137.523 270.385 138.409C270.753 139.294 271.26 140.061 271.908 140.709C272.556 141.357 273.323 141.854 274.209 142.2C275.094 142.545 276.066 142.718 277.125 142.718C278.248 142.718 279.285 142.502 280.235 142.07C281.185 141.616 282.049 140.936 282.827 140.029L286.197 143.139C285.117 144.457 283.777 145.461 282.179 146.152C280.602 146.844 278.82 147.189 276.833 147.189ZM298.349 146.8L308.458 124.12H313.642L323.783 146.8H318.275L309.981 126.777H312.054L303.727 146.8H298.349ZM303.403 141.94L304.797 137.955H316.461L317.886 141.94H303.403ZM338.136 146.8V124.12H348.439C350.902 124.12 353.072 124.596 354.952 125.546C356.831 126.475 358.3 127.782 359.358 129.466C360.416 131.151 360.946 133.149 360.946 135.46C360.946 137.75 360.416 139.748 359.358 141.454C358.3 143.139 356.831 144.457 354.952 145.407C353.072 146.336 350.902 146.8 348.439 146.8H338.136ZM343.385 142.491H348.18C349.692 142.491 350.999 142.21 352.1 141.649C353.224 141.066 354.088 140.245 354.692 139.186C355.319 138.128 355.632 136.886 355.632 135.46C355.632 134.013 355.319 132.771 354.692 131.734C354.088 130.676 353.224 129.866 352.1 129.304C350.999 128.721 349.692 128.43 348.18 128.43H343.385V142.491ZM381.732 133.257H392.65V137.34H381.732V133.257ZM382.12 142.588H394.465V146.8H376.904V124.12H394.044V128.332H382.12V142.588ZM410.641 146.8V124.12H414.983L424.638 140.126H422.337L431.831 124.12H436.14L436.205 146.8H431.28L431.247 131.67H432.155L424.573 144.403H422.208L414.464 131.67H415.566V146.8H410.641ZM459.223 146.8V137.534L460.422 140.709L450.443 124.12H456.016L463.662 136.854H460.454L468.133 124.12H473.285L463.306 140.709L464.472 137.534V146.8H459.223Z" fill="#2F2F2F"/>
</svg>
