<svg width="773" height="300" viewBox="0 0 773 300" fill="none" xmlns="http://www.w3.org/2000/svg">
<path d="M358.175 60.3021H391.45C395.785 60.3021 399.864 60.6846 403.561 61.7045C407.131 62.7244 410.318 63.9993 412.996 65.7841C415.545 67.569 417.713 69.7363 419.115 72.2861C420.517 74.7083 421.282 77.5131 421.282 80.4453C421.282 82.7401 421.027 84.7799 420.645 86.5648C420.135 88.3496 419.37 90.007 418.223 91.5368C416.948 93.0667 415.418 94.4691 413.505 95.8714C411.593 97.1463 409.171 98.5487 406.239 99.9511V100.206C409.171 100.716 411.848 101.481 414.143 102.628C416.565 103.648 418.605 105.178 420.262 106.835C421.92 108.62 423.195 110.533 424.087 112.827C425.107 115.122 425.489 117.672 425.489 120.477C425.489 123.536 424.852 126.469 423.45 129.146C422.175 131.951 420.262 134.245 417.713 136.285C415.163 138.325 412.103 139.855 408.661 141.002C405.091 142.15 401.139 142.787 396.677 142.787H358.175V60.3021ZM372.072 97.4013H389.665C392.47 97.4013 395.02 97.0188 397.187 96.2539C399.227 95.489 401.139 94.3416 402.669 92.9392C404.071 91.5368 405.219 89.8795 405.984 87.9671C406.749 86.0548 407.131 84.015 407.131 81.7202C407.131 79.2979 406.749 77.1306 405.729 75.0908C404.836 73.1785 403.434 71.5211 401.522 70.1187C399.609 68.7164 397.187 67.569 394.127 66.804C391.195 66.0391 387.625 65.7841 383.546 65.7841H372.072V97.4013ZM372.072 136.795H386.988C391.068 136.795 394.51 136.413 397.569 135.648C400.502 134.883 402.924 133.736 404.836 132.333C406.749 130.931 408.278 129.273 409.171 127.361C410.063 125.449 410.573 123.281 410.573 120.987C410.573 118.309 410.191 115.887 409.298 113.592C408.533 111.425 407.131 109.513 405.219 107.855C403.306 106.198 400.884 104.923 397.824 103.903C394.765 103.011 391.068 102.501 386.605 102.501H372.072V136.795Z" fill="black"/>
<path d="M484.564 144.176C479.719 144.176 475.257 143.284 471.05 141.626C466.97 139.842 463.4 137.547 460.468 134.615C457.409 131.682 455.114 128.24 453.456 124.416C451.799 120.463 450.907 116.256 450.907 111.794C450.907 107.077 451.799 102.615 453.456 98.5354C455.114 94.4557 457.409 90.7585 460.468 87.6988C463.4 84.6391 466.97 82.2168 471.05 80.432C475.257 78.7746 479.719 77.8822 484.564 77.8822C489.408 77.8822 493.998 78.6471 498.077 80.3045C502.157 81.8343 505.599 84.1291 508.659 86.9339C511.591 89.7386 514.013 93.0533 515.671 96.878C517.328 100.703 518.221 104.782 518.221 109.117C518.221 113.961 517.328 118.424 515.671 122.758C514.013 126.965 511.591 130.662 508.659 133.85C505.599 137.037 502.157 139.587 498.077 141.372C493.998 143.156 489.408 144.176 484.564 144.176ZM486.986 139.459C489.536 139.459 491.83 138.822 493.87 137.547C495.91 136.272 497.695 134.487 499.225 132.32C500.755 130.153 501.902 127.603 502.667 124.798C503.559 121.866 503.942 118.934 503.942 115.746C503.942 111.029 503.559 106.822 502.794 102.742C502.029 98.6628 500.755 95.2207 498.97 92.2884C497.185 89.2287 494.763 86.9339 491.958 85.1491C489.153 83.4917 485.583 82.5993 481.504 82.5993C479.337 82.5993 477.297 83.2367 475.384 84.3841C473.345 85.659 471.56 87.3164 470.03 89.4837C468.5 91.5235 467.353 94.0733 466.46 96.878C465.568 99.6828 465.058 102.742 465.058 105.93C465.058 110.519 465.568 114.981 466.588 118.934C467.48 123.013 468.882 126.583 470.795 129.643C472.707 132.702 475.002 135.125 477.679 136.782C480.484 138.567 483.544 139.459 486.986 139.459Z" fill="black"/>
<path d="M561.658 142.756H548.909V50.0721L557.961 46.5024H561.658V142.756Z" fill="black"/>
<path d="M615.929 139.714C617.586 139.714 619.116 139.459 620.646 138.949C622.048 138.439 623.323 137.674 624.343 136.909C625.49 136.017 626.255 134.997 626.893 133.85C627.403 132.702 627.785 131.555 627.785 130.28C627.785 128.368 627.275 126.71 626.255 125.18C625.235 123.778 623.96 122.503 622.43 121.356C620.773 120.208 618.988 119.189 616.948 118.169C614.909 117.276 612.869 116.256 610.702 115.236C608.662 114.216 606.494 113.069 604.455 112.049C602.415 110.902 600.63 109.499 599.1 107.97C597.443 106.44 596.168 104.655 595.148 102.615C594.255 100.703 593.746 98.2804 593.746 95.6031C593.746 93.0533 594.255 90.7586 595.403 88.4638C596.423 86.2964 597.953 84.5116 599.865 82.8543C601.777 81.3244 604.072 80.0495 606.749 79.1571C609.427 78.2647 612.359 77.8822 615.419 77.8822C617.586 77.8822 619.498 78.0097 621.411 78.2647C623.195 78.5196 624.98 79.1571 626.765 79.922C628.55 80.8144 630.335 81.9618 631.992 83.4917C633.777 85.1491 635.562 87.0614 637.602 89.6112L632.885 93.8183C630.462 89.8661 627.785 86.9339 624.853 85.0216C621.921 82.9817 618.733 82.0893 615.291 82.0893C613.506 82.0893 611.849 82.3443 610.319 82.7268C608.917 83.1092 607.642 83.7467 606.494 84.5116C605.474 85.2765 604.582 86.169 604.072 87.1889C603.435 88.3363 603.18 89.3562 603.18 90.5036C603.18 92.4159 603.69 94.0733 604.71 95.4756C605.729 96.878 607.132 98.1529 608.917 99.3003C610.702 100.448 612.614 101.595 614.909 102.487C617.076 103.507 619.371 104.4 621.666 105.42C623.96 106.44 626.255 107.46 628.422 108.607C630.717 109.882 632.63 111.157 634.414 112.687C636.072 114.216 637.474 116.001 638.622 117.914C639.641 119.953 640.151 122.248 640.151 124.925C640.151 127.603 639.641 130.153 638.622 132.447C637.729 134.87 636.199 136.909 634.159 138.567C632.12 140.352 629.697 141.627 626.638 142.646C623.578 143.666 620.008 144.176 615.929 144.176C614.016 144.176 612.104 144.049 610.192 143.666C608.152 143.411 606.239 142.901 604.2 142.009C602.16 141.117 600.247 139.969 598.208 138.439C596.168 136.909 594.255 134.87 592.343 132.32L597.57 127.73C599.1 129.898 600.502 131.682 601.905 133.212C603.307 134.742 604.837 136.017 606.239 136.909C607.769 137.929 609.299 138.694 610.829 139.077C612.359 139.459 614.016 139.714 615.929 139.714Z" fill="black"/>
<path d="M671.898 81.4398L680.822 77.8702H684.392V142.762H671.898V81.4398ZM670.878 54.6672C670.878 53.6473 671.005 52.6274 671.388 51.8625C671.77 50.9701 672.28 50.2051 672.918 49.5677C673.683 48.8028 674.448 48.2928 675.34 47.9103C676.105 47.5279 677.125 47.4004 678.145 47.4004C679.037 47.4004 680.057 47.5279 680.949 47.9103C681.714 48.2928 682.479 48.8028 683.244 49.5677C683.882 50.2051 684.392 50.9701 684.774 51.8625C685.157 52.6274 685.284 53.6473 685.284 54.6672C685.284 55.5597 685.157 56.5796 684.774 57.472C684.392 58.2369 683.882 59.0018 683.244 59.7668C682.479 60.4042 681.714 60.9142 680.949 61.2966C680.057 61.6791 679.037 61.8066 678.145 61.8066C677.125 61.8066 676.105 61.6791 675.34 61.2966C674.448 60.9142 673.683 60.4042 672.918 59.7668C672.28 59.0018 671.77 58.2369 671.388 57.472C671.005 56.5796 670.878 55.5597 670.878 54.6672Z" fill="black"/>
<path d="M760.134 142.774C758.477 141.881 757.075 140.734 755.927 139.204C754.78 137.802 754.27 136.017 754.27 134.105C752.74 135.125 751.21 136.399 749.808 137.547C748.406 138.694 746.876 139.842 745.091 140.862C743.433 141.754 741.649 142.646 739.609 143.156C737.442 143.794 735.147 144.176 732.469 144.176C729.92 144.176 727.625 143.794 725.713 142.901C723.673 142.136 722.015 140.989 720.613 139.587C719.211 138.184 718.063 136.527 717.298 134.615C716.533 132.575 716.151 130.535 716.151 128.24C716.151 125.563 716.661 123.013 717.808 120.846C718.828 118.679 720.358 116.639 722.27 114.981C724.183 113.197 726.35 111.667 728.772 110.392C731.322 108.989 733.999 107.842 736.804 106.822C739.609 105.675 742.541 104.782 745.473 103.89C748.533 103.125 751.338 102.36 754.27 101.595V97.6429C754.27 94.7107 754.015 92.2884 753.633 90.2486C753.123 88.3363 752.485 86.6789 751.72 85.5315C750.828 84.2566 749.68 83.3642 748.278 82.8543C747.003 82.3443 745.346 82.0893 743.561 82.0893C741.776 82.0893 740.119 82.4718 738.589 83.1092C737.059 83.8742 735.784 84.7666 734.637 85.914C733.489 87.1889 732.597 88.5912 731.832 90.1211C731.067 91.7785 730.557 93.4358 730.43 95.2207H718.828C719.083 92.4159 720.103 89.9936 721.633 87.8263C723.163 85.659 725.203 83.8742 727.497 82.4718C729.92 80.9419 732.597 79.7945 735.529 79.0296C738.589 78.2647 741.649 77.8822 744.963 77.8822C749.043 77.8822 752.613 78.2647 755.417 79.0296C758.222 79.922 760.517 80.9419 762.174 82.4718C763.832 83.8742 765.107 85.659 765.871 87.8263C766.509 89.8661 766.891 92.1609 766.891 94.7107V134.105C766.891 136.017 767.529 137.802 768.676 139.204C769.824 140.734 771.226 141.881 772.883 142.774H760.134ZM754.27 105.675C752.358 106.312 750.445 106.95 748.533 107.715C746.621 108.352 744.708 109.244 742.796 110.137C741.011 111.157 739.226 112.177 737.442 113.197C735.784 114.344 734.254 115.491 732.979 116.639C731.705 117.914 730.685 119.189 729.92 120.591C729.155 121.993 728.772 123.396 728.772 124.925C728.772 126.455 729.155 127.985 729.665 129.388C730.302 130.79 731.067 131.937 731.96 133.085C732.979 134.105 733.999 134.87 735.274 135.507C736.549 136.144 737.824 136.399 739.099 136.399C740.501 136.399 741.904 136.272 743.179 135.89C744.453 135.507 745.728 134.997 746.876 134.36C748.151 133.722 749.298 132.957 750.573 132.192C751.72 131.3 752.995 130.408 754.27 129.515V105.675Z" fill="black"/>
<path d="M354.251 188.42H361.579L366.64 202.766H366.702L371.795 188.42H379.092V210.404H374.248V193.544H374.186L368.41 210.404H364.715L359.157 193.544H359.095V210.404H354.251V188.42Z" fill="black"/>
<path d="M398.536 188.42H402.542L412.106 210.404H406.641L404.747 205.747H396.208L394.376 210.404H389.035L398.536 188.42ZM400.399 194.817L397.729 201.648H403.101L400.399 194.817Z" fill="black"/>
<path d="M422.251 188.42H427.095V197.549L435.634 188.42H441.968L432.187 198.636L442.807 210.404H436.038L427.095 199.971V210.404H422.251V188.42Z" fill="black"/>
<path d="M452.455 188.42H467.391V192.891H457.299V196.99H466.832V201.461H457.299V205.933H467.95V210.404H452.455V188.42Z" fill="black"/>
<path d="M498.114 201.927C498.114 203.231 497.928 204.442 497.524 205.529C497.121 206.616 496.562 207.579 495.785 208.386C495.009 209.193 494.016 209.814 492.867 210.28C491.718 210.746 490.383 210.963 488.861 210.963C487.34 210.963 485.973 210.746 484.825 210.28C483.676 209.814 482.682 209.193 481.937 208.386C481.161 207.579 480.571 206.616 480.167 205.529C479.763 204.442 479.577 203.231 479.577 201.927V188.42H484.421V201.741C484.421 202.424 484.545 203.045 484.762 203.635C484.98 204.225 485.259 204.722 485.663 205.126C486.067 205.56 486.532 205.902 487.091 206.119C487.619 206.368 488.209 206.492 488.861 206.492C489.513 206.492 490.103 206.368 490.631 206.119C491.159 205.902 491.625 205.56 492.028 205.126C492.432 204.722 492.742 204.225 492.96 203.635C493.177 203.045 493.27 202.424 493.27 201.741V188.42H498.114V201.927Z" fill="black"/>
<path d="M510.335 188.42H518.501C519.65 188.42 520.706 188.514 521.731 188.731C522.755 188.948 523.625 189.29 524.401 189.787C525.146 190.314 525.736 190.998 526.202 191.836C526.637 192.705 526.854 193.792 526.854 195.096C526.854 196.369 526.637 197.456 526.233 198.325C525.829 199.195 525.239 199.878 524.525 200.406C523.811 200.934 522.942 201.275 521.948 201.493C520.954 201.71 519.868 201.834 518.719 201.834H515.179V210.404H510.335V188.42ZM515.179 197.736H518.408C518.843 197.736 519.278 197.704 519.681 197.611C520.085 197.518 520.426 197.394 520.768 197.177C521.078 196.99 521.327 196.742 521.544 196.369C521.731 196.028 521.824 195.624 521.824 195.096C521.824 194.537 521.699 194.072 521.451 193.73C521.172 193.388 520.861 193.14 520.457 192.954C520.054 192.767 519.588 192.643 519.091 192.581C518.594 192.55 518.129 192.519 517.663 192.519H515.179V197.736Z" fill="black"/>
<path d="M561.854 188.42H565.86L575.424 210.404H569.959L568.065 205.746H559.526L557.694 210.404H552.353L561.854 188.42ZM563.717 194.816L561.047 201.648H566.419L563.717 194.816Z" fill="black"/>
<path d="M585.388 188.42H593.896C595.013 188.42 596.069 188.514 597.094 188.731C598.087 188.948 598.957 189.321 599.733 189.818C600.478 190.345 601.068 191.029 601.534 191.867C601.969 192.736 602.186 193.823 602.186 195.096C602.186 196.649 601.782 197.953 600.975 199.04C600.168 200.126 598.988 200.841 597.435 201.12L603.024 210.404H597.218L592.622 201.617H590.232V210.404H585.388V188.42ZM590.232 197.518H593.088C593.523 197.518 593.989 197.487 594.486 197.456C594.951 197.425 595.386 197.363 595.79 197.177C596.193 197.021 596.504 196.804 596.783 196.462C597.032 196.121 597.156 195.655 597.156 195.065C597.156 194.506 597.032 194.072 596.814 193.73C596.597 193.388 596.286 193.14 595.945 192.954C595.603 192.798 595.2 192.674 594.734 192.612C594.268 192.55 593.833 192.519 593.399 192.519H590.232V197.518Z" fill="black"/>
<path d="M616.993 192.705H610.721V188.42H628.109V192.705H621.837V210.404H616.993V192.705Z" fill="black"/>
<path d="M643.117 188.42H638.273V210.404H643.117V188.42Z" fill="black"/>
<path d="M666.143 193.784C665.74 193.287 665.212 192.914 664.56 192.666C663.877 192.449 663.225 192.324 662.635 192.324C662.293 192.324 661.92 192.355 661.548 192.449C661.175 192.542 660.834 192.666 660.492 192.821C660.151 193.008 659.902 193.256 659.685 193.535C659.467 193.815 659.374 194.187 659.374 194.591C659.374 195.243 659.623 195.771 660.12 196.113C660.616 196.454 661.237 196.765 662.014 197.013C662.759 197.261 663.566 197.51 664.436 197.758C665.305 198.007 666.112 198.348 666.889 198.814C667.634 199.28 668.255 199.87 668.752 200.646C669.248 201.422 669.497 202.447 669.497 203.72C669.497 204.931 669.279 206.018 668.814 206.918C668.348 207.819 667.758 208.595 666.982 209.185C666.205 209.775 665.305 210.241 664.28 210.52C663.256 210.8 662.169 210.955 661.02 210.955C659.592 210.955 658.256 210.737 657.046 210.303C655.835 209.868 654.686 209.154 653.63 208.191L657.077 204.403C657.573 205.055 658.194 205.583 658.971 205.925C659.716 206.297 660.492 206.483 661.299 206.483C661.703 206.483 662.107 206.421 662.51 206.328C662.914 206.235 663.256 206.111 663.597 205.925C663.908 205.738 664.156 205.49 664.373 205.21C664.56 204.931 664.653 204.589 664.653 204.186C664.653 203.534 664.404 203.006 663.908 202.602C663.38 202.23 662.759 201.919 661.983 201.64C661.206 201.36 660.399 201.112 659.499 200.832C658.598 200.553 657.791 200.211 657.014 199.746C656.238 199.28 655.617 198.69 655.12 197.945C654.593 197.199 654.344 196.206 654.344 194.995C654.344 193.815 654.593 192.79 655.058 191.89C655.524 190.989 656.114 190.244 656.921 189.654C657.698 189.064 658.567 188.598 659.592 188.288C660.616 188.008 661.641 187.853 662.728 187.853C663.97 187.853 665.181 188.039 666.33 188.381C667.479 188.723 668.534 189.313 669.466 190.151L666.143 193.784Z" fill="black"/>
<path d="M685.103 192.705H678.83V188.42H696.219V192.705H689.946V210.404H685.103V192.705Z" fill="black"/>
<path d="M354.434 234.97H369.369V239.441H359.277V243.54H368.81V248.011H359.277V252.483H369.928V256.954H354.434V234.97Z" fill="black"/>
<path d="M386.94 247.576L378.68 234.97H384.704L389.362 243.198L394.299 234.97H400.043L391.784 247.576V256.954H386.94V247.576Z" fill="black"/>
<path d="M409.638 234.97H424.574V239.441H414.482V243.54H424.015V248.011H414.482V252.483H425.133V256.954H409.638V234.97Z" fill="black"/>
<path d="M436.76 234.97H444.958C445.92 234.97 446.852 235.032 447.845 235.156C448.808 235.311 449.646 235.56 450.423 235.963C451.199 236.367 451.82 236.957 452.286 237.671C452.751 238.385 453 239.348 453 240.559C453 241.801 452.658 242.826 451.975 243.633C451.261 244.471 450.361 245.061 449.212 245.403V245.465C449.926 245.558 450.609 245.775 451.199 246.055C451.789 246.365 452.286 246.738 452.72 247.204C453.124 247.669 453.466 248.228 453.683 248.849C453.9 249.47 454.025 250.122 454.025 250.837C454.025 251.985 453.776 252.948 453.279 253.724C452.783 254.501 452.13 255.153 451.354 255.618C450.578 256.084 449.677 256.426 448.715 256.643C447.721 256.86 446.728 256.954 445.765 256.954H436.76V234.97ZM441.604 243.757H445.113C445.486 243.757 445.858 243.726 446.231 243.633C446.572 243.54 446.914 243.415 447.193 243.229C447.473 243.043 447.721 242.794 447.908 242.484C448.063 242.173 448.156 241.801 448.156 241.366C448.156 240.9 448.063 240.528 447.877 240.217C447.659 239.938 447.411 239.689 447.1 239.534C446.79 239.379 446.448 239.255 446.045 239.162C445.641 239.099 445.268 239.068 444.896 239.068H441.604V243.757ZM441.604 252.855H445.951C446.324 252.855 446.697 252.824 447.1 252.731C447.473 252.637 447.814 252.513 448.125 252.296C448.435 252.079 448.684 251.83 448.901 251.489C449.087 251.147 449.181 250.743 449.181 250.278C449.181 249.75 449.056 249.346 448.808 249.005C448.529 248.694 448.218 248.446 447.814 248.29C447.411 248.135 447.007 248.011 446.541 247.949C446.076 247.887 445.672 247.856 445.268 247.856H441.604V252.855Z" fill="black"/>
<path d="M464.637 234.97H473.145C474.263 234.97 475.319 235.063 476.343 235.281C477.337 235.498 478.206 235.87 478.983 236.367C479.728 236.895 480.318 237.578 480.784 238.417C481.218 239.286 481.436 240.373 481.436 241.646C481.436 243.198 481.032 244.503 480.225 245.589C479.417 246.676 478.237 247.39 476.685 247.67L482.274 256.954H476.468L471.872 248.167H469.481V256.954H464.637V234.97ZM469.481 244.068H472.338C472.773 244.068 473.238 244.037 473.735 244.006C474.201 243.975 474.636 243.913 475.039 243.726C475.443 243.571 475.753 243.354 476.033 243.012C476.281 242.671 476.405 242.205 476.405 241.615C476.405 241.056 476.281 240.621 476.064 240.28C475.847 239.938 475.536 239.69 475.194 239.503C474.853 239.348 474.449 239.224 473.983 239.162C473.518 239.1 473.083 239.069 472.648 239.069H469.481V244.068Z" fill="black"/>
<path d="M491.348 245.954C491.348 244.184 491.658 242.6 492.248 241.172C492.838 239.744 493.645 238.533 494.701 237.508C495.757 236.515 496.999 235.738 498.458 235.21C499.918 234.683 501.501 234.403 503.209 234.403C504.917 234.403 506.5 234.683 507.96 235.21C509.419 235.738 510.661 236.515 511.717 237.508C512.773 238.533 513.611 239.744 514.201 241.172C514.791 242.6 515.07 244.184 515.07 245.954C515.07 247.724 514.791 249.307 514.201 250.736C513.611 252.164 512.773 253.375 511.717 254.369C510.661 255.393 509.419 256.17 507.96 256.697C506.5 257.225 504.917 257.505 503.209 257.505C501.501 257.505 499.918 257.225 498.458 256.697C496.999 256.17 495.757 255.393 494.701 254.369C493.645 253.375 492.838 252.164 492.248 250.736C491.658 249.307 491.348 247.724 491.348 245.954ZM496.378 245.954C496.378 246.979 496.533 247.941 496.875 248.779C497.185 249.649 497.651 250.394 498.241 251.015C498.831 251.667 499.576 252.164 500.415 252.506C501.253 252.847 502.184 253.033 503.209 253.033C504.234 253.033 505.196 252.847 506.035 252.506C506.873 252.164 507.587 251.667 508.177 251.015C508.767 250.394 509.233 249.649 509.574 248.779C509.885 247.941 510.04 246.979 510.04 245.954C510.04 244.929 509.885 243.998 509.574 243.128C509.233 242.259 508.767 241.514 508.177 240.862C507.587 240.241 506.873 239.744 506.035 239.402C505.196 239.061 504.234 238.874 503.209 238.874C502.184 238.874 501.253 239.061 500.415 239.402C499.576 239.744 498.831 240.241 498.241 240.862C497.651 241.514 497.185 242.259 496.875 243.128C496.533 243.998 496.378 244.929 496.378 245.954Z" fill="black"/>
<path d="M523.809 234.97H529.087L532.596 249.067H532.658L537.253 234.97H541.756L546.32 249.44H546.382L550.077 234.97H554.983L548.556 256.954H544.24L539.396 241.739H539.334L534.49 256.954H530.329L523.809 234.97Z" fill="black"/>
<path d="M575.837 240.334C575.434 239.837 574.906 239.464 574.254 239.216C573.571 238.999 572.918 238.874 572.329 238.874C571.987 238.874 571.614 238.905 571.242 238.999C570.869 239.092 570.528 239.216 570.186 239.371C569.844 239.557 569.596 239.806 569.379 240.085C569.161 240.365 569.068 240.737 569.068 241.141C569.068 241.793 569.317 242.321 569.813 242.663C570.31 243.004 570.931 243.315 571.708 243.563C572.453 243.811 573.26 244.06 574.129 244.308C574.999 244.557 575.806 244.898 576.582 245.364C577.328 245.83 577.949 246.42 578.445 247.196C578.942 247.972 579.191 248.997 579.191 250.27C579.191 251.481 578.973 252.568 578.508 253.468C578.042 254.369 577.452 255.145 576.676 255.735C575.899 256.325 574.999 256.791 573.974 257.07C572.95 257.349 571.863 257.505 570.714 257.505C569.286 257.505 567.95 257.287 566.739 256.853C565.528 256.418 564.38 255.704 563.324 254.741L566.77 250.953C567.267 251.605 567.888 252.133 568.665 252.474C569.41 252.847 570.186 253.033 570.993 253.033C571.397 253.033 571.801 252.971 572.204 252.878C572.608 252.785 572.95 252.661 573.291 252.474C573.602 252.288 573.85 252.04 574.067 251.76C574.254 251.481 574.347 251.139 574.347 250.736C574.347 250.084 574.098 249.556 573.602 249.152C573.074 248.779 572.453 248.469 571.676 248.19C570.9 247.91 570.093 247.662 569.192 247.382C568.292 247.103 567.485 246.761 566.708 246.295C565.932 245.83 565.311 245.24 564.814 244.495C564.286 243.749 564.038 242.756 564.038 241.545C564.038 240.365 564.286 239.34 564.752 238.44C565.218 237.539 565.808 236.794 566.615 236.204C567.391 235.614 568.261 235.148 569.286 234.838C570.31 234.558 571.335 234.403 572.422 234.403C573.664 234.403 574.875 234.589 576.024 234.931C577.172 235.272 578.228 235.862 579.16 236.701L575.837 240.334Z" fill="black"/>
<path d="M618.374 240.334C617.97 239.837 617.442 239.464 616.79 239.216C616.107 238.999 615.455 238.874 614.865 238.874C614.524 238.874 614.151 238.905 613.778 238.999C613.406 239.092 613.064 239.216 612.723 239.371C612.381 239.557 612.133 239.806 611.915 240.085C611.698 240.365 611.605 240.737 611.605 241.141C611.605 241.793 611.853 242.321 612.35 242.663C612.847 243.004 613.468 243.315 614.244 243.563C614.989 243.811 615.797 244.06 616.666 244.308C617.536 244.557 618.343 244.898 619.119 245.364C619.864 245.83 620.485 246.42 620.982 247.196C621.479 247.972 621.727 248.997 621.727 250.27C621.727 251.481 621.51 252.568 621.044 253.468C620.579 254.369 619.989 255.145 619.212 255.735C618.436 256.325 617.536 256.791 616.511 257.07C615.486 257.349 614.399 257.505 613.251 257.505C611.822 257.505 610.487 257.287 609.276 256.853C608.065 256.418 606.916 255.704 605.861 254.741L609.307 250.953C609.804 251.605 610.425 252.133 611.201 252.474C611.946 252.847 612.723 253.033 613.53 253.033C613.934 253.033 614.337 252.971 614.741 252.878C615.145 252.785 615.486 252.661 615.828 252.474C616.138 252.288 616.387 252.04 616.604 251.76C616.79 251.481 616.883 251.139 616.883 250.736C616.883 250.084 616.635 249.556 616.138 249.152C615.61 248.779 614.989 248.469 614.213 248.19C613.437 247.91 612.63 247.662 611.729 247.382C610.829 247.103 610.021 246.761 609.245 246.295C608.469 245.83 607.848 245.24 607.351 244.495C606.823 243.749 606.575 242.756 606.575 241.545C606.575 240.365 606.823 239.34 607.289 238.44C607.755 237.539 608.345 236.794 609.152 236.204C609.928 235.614 610.798 235.148 611.822 234.838C612.847 234.558 613.872 234.403 614.958 234.403C616.2 234.403 617.411 234.589 618.56 234.931C619.709 235.272 620.765 235.862 621.696 236.701L618.374 240.334Z" fill="black"/>
<path d="M637.315 239.255H631.043V234.97H648.432V239.255H642.159V256.954H637.315V239.255Z" fill="black"/>
<path d="M664.072 247.577L655.813 234.97H661.837L666.494 243.198L671.431 234.97H677.176L668.916 247.577V256.954H664.072V247.577Z" fill="black"/>
<path d="M686.721 234.97H691.565V252.483H700.538V256.954H686.721V234.97Z" fill="black"/>
<path d="M715.756 234.97H710.912V256.954H715.756V234.97Z" fill="black"/>
<path d="M738.777 240.334C738.373 239.837 737.845 239.464 737.193 239.216C736.51 238.999 735.858 238.874 735.268 238.874C734.926 238.874 734.554 238.905 734.181 238.999C733.809 239.092 733.467 239.216 733.125 239.371C732.784 239.557 732.536 239.806 732.318 240.085C732.101 240.365 732.008 240.737 732.008 241.141C732.008 241.793 732.256 242.321 732.753 242.663C733.25 243.004 733.871 243.315 734.647 243.563C735.392 243.811 736.199 244.06 737.069 244.308C737.938 244.557 738.746 244.898 739.522 245.364C740.267 245.83 740.888 246.42 741.385 247.196C741.882 247.972 742.13 248.997 742.13 250.27C742.13 251.481 741.913 252.568 741.447 253.468C740.981 254.369 740.391 255.145 739.615 255.735C738.839 256.325 737.938 256.791 736.914 257.07C735.889 257.349 734.802 257.505 733.653 257.505C732.225 257.505 730.89 257.287 729.679 256.853C728.468 256.418 727.319 255.704 726.263 254.741L729.71 250.953C730.207 251.605 730.828 252.133 731.604 252.474C732.349 252.847 733.125 253.033 733.933 253.033C734.336 253.033 734.74 252.971 735.144 252.878C735.547 252.785 735.889 252.661 736.231 252.474C736.541 252.288 736.789 252.04 737.007 251.76C737.193 251.481 737.286 251.139 737.286 250.736C737.286 250.084 737.038 249.556 736.541 249.152C736.013 248.779 735.392 248.469 734.616 248.19C733.84 247.91 733.032 247.662 732.132 247.382C731.231 247.103 730.424 246.761 729.648 246.295C728.872 245.83 728.251 245.24 727.754 244.495C727.226 243.749 726.977 242.756 726.977 241.545C726.977 240.365 727.226 239.34 727.692 238.44C728.157 237.539 728.747 236.794 729.555 236.204C730.331 235.614 731.2 235.148 732.225 234.838C733.25 234.558 734.274 234.403 735.361 234.403C736.603 234.403 737.814 234.589 738.963 234.931C740.112 235.272 741.168 235.862 742.099 236.701L738.777 240.334Z" fill="black"/>
<path d="M757.78 239.255H751.508V234.97H768.896V239.255H762.624V256.954H757.78V239.255Z" fill="black"/>
<path d="M151.093 0.00400016C220.892 0.447647 286.989 53.6873 298.461 127.2C306.076 175.991 288.522 229.716 246.938 264.676C211.461 294.503 160.897 307.316 114.448 295.822C74.1246 285.844 37.4796 259.531 16.5153 218.327C1.79443 189.395 -3.76726 156.418 2.61113 122.567C12.0124 72.6794 45.9431 25.4975 105.527 6.75751C119.915 2.23231 134.956 0.0483978 150.125 0C150.447 0 150.77 0.00198359 151.093 0.00400016ZM14.2649 167.489C16.0697 182.018 20.1552 196.259 26.5296 209.482C52.4788 263.304 116.031 296.656 176.937 284.577C218.98 276.239 256.303 246.869 274.474 207.977C292.283 169.86 291.165 123.398 271.514 86.1723C248.178 41.969 199.406 12.7508 149.258 12.9101C99.1824 13.3881 50.7909 43.189 28.0098 87.6444C20.8147 101.684 16.233 116.975 14.279 132.608C50.563 108.044 87.1516 83.9339 123.571 59.5716C135.035 51.9792 148.58 47.8674 162.325 47.8049H162.71C190.289 48.0651 215.605 72.0845 216.669 100.058C217.448 120.521 205.183 140.227 187.175 150.043V150.168C203.715 159.219 215.937 176.6 216.669 195.852C217.771 224.786 192.793 252.203 162.38 252.3C162.38 252.3 161.486 252.294 161.047 252.288C147.915 251.983 135.085 248.013 124.099 240.88C87.3875 216.568 50.7122 192.194 14.2649 167.489ZM162.38 156.496H156.59V239.073C158.504 239.277 160.427 239.384 162.355 239.394H162.357H162.359V239.392H162.38C162.73 239.392 163.081 239.388 163.432 239.38C185.32 238.75 204.752 218.395 203.761 196.078C202.84 175.279 184.618 156.712 162.63 156.504L162.628 156.502C162.545 156.504 162.462 156.504 162.38 156.504V156.496ZM143.698 64.0928C139.383 65.5488 135.047 67.5028 131.175 70.0155C91.9268 96.0071 52.9184 122.36 13.791 148.535C13.5248 148.712 11.8006 149.995 11.8006 149.995C11.8006 149.995 13.4804 151.34 13.7022 151.505C51.8072 179.209 91.8965 204.075 131.175 230.087C135.087 232.626 139.302 234.675 143.698 236.195V156.496H118.033L112.758 147.454V143.606H143.698V64.0928ZM156.59 61.1083V143.606H162.339V143.598C162.704 143.596 163.067 143.592 163.432 143.584C185.32 142.957 204.752 122.602 203.761 100.284C202.84 79.4854 184.618 60.9187 162.63 60.711H162.359L156.59 61.1083Z" fill="black"/>
</svg>
