<svg width="301" height="300" viewBox="0 0 301 300" fill="none" xmlns="http://www.w3.org/2000/svg">
<path d="M151.093 0.00400016C220.892 0.447647 286.989 53.6873 298.461 127.2C306.076 175.991 288.522 229.716 246.938 264.676C211.461 294.503 160.897 307.316 114.448 295.822C74.1246 285.844 37.4796 259.531 16.5153 218.327C1.79443 189.395 -3.76726 156.418 2.61113 122.567C12.0124 72.6794 45.9431 25.4975 105.527 6.75751C119.915 2.23231 134.956 0.0483978 150.125 0C150.447 0 150.77 0.00198359 151.093 0.00400016ZM14.2649 167.489C16.0697 182.018 20.1552 196.259 26.5296 209.482C52.4788 263.304 116.031 296.656 176.937 284.577C218.98 276.239 256.303 246.869 274.474 207.977C292.283 169.86 291.165 123.398 271.514 86.1723C248.178 41.969 199.406 12.7508 149.258 12.9101C99.1824 13.3881 50.7909 43.189 28.0098 87.6444C20.8147 101.684 16.233 116.975 14.279 132.608C50.563 108.044 87.1516 83.9339 123.571 59.5716C135.035 51.9792 148.58 47.8674 162.325 47.8049H162.71C190.289 48.0651 215.605 72.0845 216.669 100.058C217.448 120.521 205.183 140.227 187.175 150.043V150.168C203.715 159.219 215.937 176.6 216.669 195.852C217.771 224.786 192.793 252.203 162.38 252.3C162.38 252.3 161.486 252.294 161.047 252.288C147.915 251.983 135.085 248.013 124.099 240.88C87.3875 216.568 50.7122 192.194 14.2649 167.489ZM162.38 156.496H156.59V239.073C158.504 239.277 160.427 239.384 162.355 239.394H162.357H162.359V239.392H162.38C162.73 239.392 163.081 239.388 163.432 239.38C185.32 238.75 204.752 218.395 203.761 196.078C202.84 175.279 184.618 156.712 162.63 156.504L162.628 156.502C162.545 156.504 162.462 156.504 162.38 156.504V156.496ZM143.698 64.0928C139.383 65.5488 135.047 67.5028 131.175 70.0155C91.9268 96.0071 52.9184 122.36 13.791 148.535C13.5248 148.712 11.8006 149.995 11.8006 149.995C11.8006 149.995 13.4804 151.34 13.7022 151.505C51.8072 179.209 91.8965 204.075 131.175 230.087C135.087 232.626 139.302 234.675 143.698 236.195V156.496H118.033L112.758 147.454V143.606H143.698V64.0928ZM156.59 61.1083V143.606H162.339V143.598C162.704 143.596 163.067 143.592 163.432 143.584C185.32 142.957 204.752 122.602 203.761 100.284C202.84 79.4854 184.618 60.9187 162.63 60.711H162.359L156.59 61.1083Z" fill="black"/>
</svg>
