<svg width="773" height="300" viewBox="0 0 773 300" fill="none" xmlns="http://www.w3.org/2000/svg">
<path fill-rule="evenodd" clip-rule="evenodd" d="M501.37 201.65C496.21 201.65 491.437 200.748 487.053 198.944C482.669 197.14 478.893 194.686 475.725 191.581C472.558 188.476 470.082 184.837 468.299 180.662C466.516 176.488 465.625 172.03 465.625 167.289C465.625 162.296 466.516 157.608 468.299 153.223C470.082 148.839 472.558 145.021 475.725 141.77C478.893 138.518 482.669 135.948 487.053 134.061C491.437 132.172 496.21 131.228 501.37 131.228C506.531 131.228 511.282 132.089 515.624 133.809C519.967 135.529 523.732 137.889 526.921 140.889C530.11 143.889 532.596 147.413 534.379 151.461C536.162 155.51 537.053 159.842 537.053 164.457C537.053 169.575 536.162 174.39 534.379 178.9C532.596 183.41 530.11 187.354 526.921 190.731C523.732 194.109 519.967 196.773 515.624 198.724C511.282 200.675 506.531 201.65 501.37 201.65ZM773 200.203H759.532V190.952C757.94 192.168 756.377 193.406 754.846 194.665C753.313 195.923 751.656 197.077 749.875 198.126C748.091 199.175 746.118 200.024 743.957 200.675C741.796 201.325 739.29 201.65 736.436 201.65C733.793 201.65 731.403 201.22 729.263 200.36C727.124 199.5 725.299 198.315 723.787 196.804C722.279 195.294 721.122 193.511 720.328 191.455C719.53 189.399 719.131 187.176 719.131 184.784C719.131 181.889 719.708 179.278 720.861 176.949C722.014 174.62 723.588 172.533 725.582 170.687C727.573 168.841 729.902 167.205 732.567 165.778C735.232 164.352 738.053 163.072 741.031 161.94C744.011 160.807 747.083 159.8 750.252 158.919C753.418 158.038 756.512 157.22 759.532 156.465V152.248C759.532 149.185 759.231 146.594 758.622 144.476C758.013 142.357 757.142 140.647 756.01 139.347C754.876 138.046 753.502 137.112 751.888 136.546C750.271 135.98 748.457 135.697 746.444 135.697C744.178 135.697 742.332 135.99 740.904 136.578C739.479 137.165 738.358 137.941 737.538 138.906C736.719 139.871 736.164 140.973 735.87 142.21C735.577 143.448 735.431 144.696 735.431 145.955C735.431 147.129 735.337 148.262 735.148 149.353C734.957 150.444 734.612 151.398 734.108 152.216C733.604 153.035 732.922 153.695 732.063 154.199C731.203 154.702 730.101 154.954 728.759 154.954C727.711 154.954 726.757 154.755 725.895 154.356C725.035 153.958 724.291 153.402 723.661 152.689C723.033 151.975 722.551 151.136 722.214 150.171C721.88 149.206 721.71 148.157 721.71 147.025C721.71 144.801 722.446 142.724 723.914 140.794C725.383 138.864 727.353 137.197 729.829 135.791C732.305 134.385 735.199 133.274 738.514 132.456C741.828 131.637 745.31 131.228 748.961 131.228C753.407 131.228 757.164 131.658 760.225 132.519C763.289 133.378 765.765 134.585 767.651 136.137C769.54 137.689 770.904 139.578 771.742 141.801C772.583 144.025 773 146.479 773 149.164V200.203ZM627.714 196.993C629.56 196.993 631.259 196.71 632.811 196.144C634.364 195.577 635.696 194.832 636.808 193.909C637.919 192.987 638.79 191.916 639.419 190.7C640.049 189.483 640.363 188.246 640.363 186.987C640.363 184.931 639.849 183.137 638.821 181.606C637.794 180.075 636.43 178.69 634.731 177.453C633.032 176.215 631.091 175.093 628.91 174.086C626.728 173.079 624.515 172.04 622.27 170.971C620.025 169.9 617.812 168.747 615.631 167.509C613.449 166.272 611.509 164.845 609.809 163.23C608.11 161.614 606.747 159.747 605.719 157.629C604.691 155.51 604.177 153.003 604.177 150.108C604.177 147.381 604.754 144.864 605.908 142.556C607.061 140.249 608.656 138.256 610.691 136.578C612.725 134.899 615.159 133.588 617.991 132.644C620.823 131.701 623.917 131.228 627.273 131.228C629.497 131.228 631.595 131.386 633.566 131.701C635.538 132.015 637.458 132.623 639.325 133.525C641.192 134.428 643.06 135.697 644.927 137.333C646.792 138.969 648.732 141.109 650.748 143.752L645.838 148.157C643.278 143.962 640.416 140.836 637.248 138.78C634.081 136.724 630.693 135.697 627.084 135.697C625.197 135.697 623.455 135.938 621.861 136.42C620.267 136.903 618.903 137.553 617.77 138.371C616.638 139.189 615.757 140.144 615.127 141.235C614.498 142.326 614.183 143.479 614.183 144.696C614.183 146.71 614.75 148.472 615.882 149.982C617.015 151.493 618.505 152.856 620.351 154.073C622.197 155.29 624.294 156.412 626.644 157.44C628.993 158.468 631.406 159.517 633.881 160.587C636.357 161.656 638.769 162.8 641.119 164.016C643.467 165.233 645.566 166.649 647.412 168.264C649.258 169.88 650.748 171.747 651.879 173.865C653.014 175.984 653.58 178.449 653.58 181.26C653.58 184.113 653.044 186.787 651.974 189.284C650.904 191.78 649.301 193.941 647.161 195.766C645.021 197.591 642.325 199.028 639.073 200.077C635.822 201.126 632.035 201.65 627.714 201.65C625.742 201.65 623.717 201.493 621.641 201.178C619.564 200.864 617.466 200.255 615.347 199.353C613.229 198.451 611.11 197.182 608.991 195.546C606.872 193.909 604.806 191.77 602.792 189.127L608.268 184.155C609.904 186.462 611.477 188.424 612.987 190.039C614.498 191.654 616.019 192.976 617.55 194.004C619.081 195.032 620.676 195.787 622.333 196.269C623.99 196.752 625.784 196.993 627.714 196.993ZM576.878 200.203H563.473V101.839L573.039 98H576.878V200.203ZM693.971 200.203H680.629V135.067L690.069 131.228H693.971V200.203ZM413.906 200.202H373V112.537H408.305C412.962 112.537 417.242 113.061 421.144 114.11C425.045 115.159 428.391 116.628 431.181 118.516C433.971 120.404 436.143 122.669 437.695 125.312C439.247 127.956 440.024 130.872 440.024 134.06C440.024 136.451 439.772 138.591 439.268 140.479C438.765 142.367 437.905 144.119 436.688 145.734C435.471 147.349 433.835 148.881 431.779 150.328C429.723 151.775 427.143 153.234 424.038 154.702V154.954C427.143 155.457 429.965 156.307 432.503 157.502C435.041 158.698 437.202 160.219 438.985 162.065C440.768 163.911 442.142 166.04 443.107 168.453C444.072 170.865 444.555 173.54 444.555 176.477C444.555 179.791 443.831 182.896 442.384 185.791C440.936 188.686 438.88 191.203 436.216 193.343C433.552 195.483 430.332 197.161 426.556 198.377C422.78 199.594 418.563 200.202 413.906 200.202ZM503.887 196.679C506.531 196.679 508.954 195.997 511.156 194.634C513.359 193.27 515.268 191.445 516.883 189.158C518.498 186.872 519.747 184.197 520.628 181.134C521.509 178.072 521.949 174.841 521.949 171.443C521.949 166.534 521.53 161.95 520.691 157.692C519.852 153.434 518.488 149.71 516.6 146.521C514.712 143.333 512.258 140.826 509.237 139.001C506.216 137.176 502.503 136.263 498.098 136.263C495.832 136.263 493.65 136.914 491.553 138.214C489.455 139.515 487.598 141.298 485.983 143.564C484.368 145.829 483.078 148.472 482.113 151.493C481.148 154.514 480.665 157.724 480.665 161.122C480.665 166.03 481.19 170.646 482.239 174.967C483.287 179.288 484.798 183.054 486.77 186.263C488.742 189.473 491.175 192.011 494.07 193.878C496.965 195.745 500.238 196.679 503.887 196.679ZM403.208 157.408H387.727V193.784H403.648C407.928 193.784 411.641 193.375 414.788 192.556C417.934 191.738 420.535 190.595 422.591 189.127C424.647 187.658 426.168 185.885 427.154 183.809C428.14 181.732 428.633 179.456 428.633 176.98C428.633 174.211 428.192 171.631 427.311 169.24C426.43 166.848 424.983 164.782 422.969 163.041C420.955 161.3 418.333 159.926 415.102 158.919C411.872 157.912 407.907 157.408 403.208 157.408ZM759.532 160.807C757.603 161.436 755.601 162.15 753.523 162.947C751.446 163.744 749.411 164.635 747.42 165.621C745.426 166.607 743.529 167.677 741.723 168.831C739.921 169.985 738.336 171.212 736.973 172.513C735.609 173.813 734.529 175.198 733.731 176.666C732.933 178.134 732.534 179.666 732.534 181.26C732.534 182.896 732.839 184.459 733.448 185.949C734.057 187.438 734.863 188.739 735.87 189.85C736.878 190.962 738.042 191.843 739.363 192.494C740.686 193.144 742.06 193.469 743.486 193.469C744.997 193.469 746.434 193.27 747.797 192.871C749.161 192.473 750.481 191.938 751.761 191.266C753.041 190.595 754.321 189.809 755.601 188.906C756.881 188.004 758.19 187.05 759.532 186.043V160.807ZM399.873 118.39H387.727V151.996H406.48C409.417 151.996 412.04 151.576 414.347 150.737C416.654 149.898 418.595 148.734 420.168 147.244C421.742 145.755 422.937 144.004 423.755 141.99C424.574 139.976 424.983 137.773 424.983 135.382C424.983 132.822 424.5 130.494 423.535 128.396C422.57 126.298 421.06 124.505 419.004 123.015C416.948 121.526 414.347 120.383 411.2 119.586C408.054 118.788 404.278 118.39 399.873 118.39ZM687.172 98C688.223 98 689.217 98.1784 690.163 98.5349C691.106 98.8917 691.925 99.374 692.618 99.9825C693.308 100.591 693.866 101.304 694.283 102.122C694.704 102.94 694.914 103.811 694.914 104.734C694.914 105.657 694.704 106.528 694.283 107.346C693.866 108.164 693.308 108.877 692.618 109.485C691.925 110.094 691.106 110.576 690.163 110.933C689.217 111.289 688.223 111.468 687.172 111.468C686.124 111.468 685.138 111.289 684.216 110.933C683.292 110.576 682.483 110.094 681.793 109.485C681.101 108.877 680.543 108.164 680.125 107.346C679.705 106.528 679.495 105.657 679.495 104.734C679.495 103.811 679.705 102.94 680.125 102.122C680.543 101.304 681.101 100.591 681.793 99.9825C682.483 99.374 683.292 98.8917 684.216 98.5349C685.138 98.1784 686.124 98 687.172 98ZM151.059 0.00269467C220.842 0.447316 286.924 53.6752 298.395 127.17C306.007 175.951 288.457 229.662 246.883 264.615C211.413 294.435 160.862 307.246 114.422 295.753C74.1071 285.777 37.4719 259.471 16.5112 218.277C1.79339 189.352 -3.76626 156.383 2.61068 122.54C12.0089 72.6619 45.9321 25.4916 105.502 6.75555C119.889 2.23119 134.926 0.0485041 150.09 0C150.413 0 150.736 0.00269467 151.059 0.00269467ZM14.2618 167.45C16.0667 181.977 20.1497 196.216 26.5231 209.433C52.4669 263.243 116.005 296.587 176.897 284.511C218.932 276.175 256.245 246.812 274.412 207.929C292.216 169.821 291.1 123.37 271.453 86.1517C248.123 41.959 199.36 12.7488 149.224 12.905C99.1597 13.3847 50.7803 43.1797 28.0028 87.6256C20.8099 101.66 16.2295 116.949 14.2764 132.578C50.551 108.019 87.1323 83.9151 123.543 59.5579C135.004 51.967 148.546 47.855 162.289 47.793H162.673C190.247 48.0544 215.556 72.0693 216.621 100.035C217.4 120.493 205.137 140.193 187.133 150.007V150.134C203.67 159.183 215.888 176.558 216.621 195.809C217.722 224.733 192.75 252.145 162.343 252.241C162.343 252.241 161.449 252.235 161.011 252.229C147.882 251.925 135.056 247.954 124.07 240.826C87.3667 216.517 50.7016 192.149 14.2618 167.45ZM162.343 156.461H156.555V239.018C158.468 239.222 160.392 239.327 162.319 239.338L162.323 239.335L162.343 239.338C162.694 239.335 163.044 239.33 163.394 239.325C185.279 238.697 204.706 218.347 203.716 196.032C202.793 175.237 184.577 156.676 162.592 156.469V156.466C162.509 156.466 162.426 156.469 162.343 156.469V156.461ZM143.667 64.0796C139.351 65.532 135.017 67.4857 131.145 69.9998C91.9059 95.9872 52.907 122.333 13.789 148.501C13.5217 148.679 11.7976 149.959 11.7976 149.959C11.7976 149.959 13.478 151.306 13.6992 151.471C51.7949 179.169 91.8758 204.027 131.145 230.034C135.057 232.572 139.271 234.62 143.667 236.143V156.461H118.006L112.732 147.42V143.572H143.667V64.0796ZM156.555 61.0938V143.572H162.303V143.564C162.667 143.564 163.031 143.559 163.394 143.551C185.279 142.923 204.706 122.573 203.716 100.261C202.793 79.466 184.577 60.9051 162.592 60.6976H162.323V60.6949L156.555 61.0938Z" fill="#2F2F2F"/>
</svg>
